# xmcd
#
# Track frame offsets:
#	150
#	18157
#	35529
#	53628
#	69733
#	84014
#	100166
#	118595
#	135746
#	153700
#	170270
#	184167
#	202732
#	220618
#	236276
#	252694
#	267519
#	284576
#
# Disc length: 4042 seconds
#
# Revision: 1
# Processed by: cddbd v1.5.1PL0 Copyright (c) Steve Scherf et al.
# Submitted via: audiograbber 1.83.01
#
DISCID=f90fc812
DTITLE=Αδαμαντίδης - Σώμα με σώμα
DYEAR=2004
DGENRE=Other
TTITLE0=Ψυχολογικά
TTITLE1=Τρεις τα μεσάνυχτα
TTITLE2=Ψέμμα
TTITLE3=Τα τελευταία μου δάκρυα
TTITLE4=Σαν βομβαρδισμένη πολιτεία
TTITLE5=Το κακό παιδί
TTITLE6=Αντιστεναχώρια
TTITLE7=Σώμα με σώμα
TTITLE8=Μελανιά
TTITLE9=Ονειρα πολυτελείας
TTITLE10=Πάμε στοίχημα
TTITLE11=Κάνω ότι γελάω
TTITLE12=Ασε με
TTITLE13=Γυάλινη πόλη
TTITLE14=Δυο μάτια λιμνοθάλασσες
TTITLE15=Ξαναγύρισες
TTITLE16=Σώμα με σώμα ΙΙ
TTITLE17=Μελανιά ΙΙ
EXTD=
EXTT0=
EXTT1=
EXTT2=
EXTT3=
EXTT4=
EXTT5=
EXTT6=
EXTT7=
EXTT8=
EXTT9=
EXTT10=
EXTT11=
EXTT12=
EXTT13=
EXTT14=
EXTT15=
EXTT16=
EXTT17=
PLAYORDER=
